#!OML:ASF F:\VICON\USERDATA\INSTALL\Justin_Nancy\Justin_Nancy.ASF
:FULLY-SPECIFIED
:DEGREES
221
root -3.21975 17.3935 1.10391 3.35436 32.1748 4.1177
lowerback 6.22282 -0.461446 -3.44854
upperback 0.254658 -0.808271 1.42207
thorax -3.15974 -0.340785 3.48193
lowerneck -14.4321 -2.68851 -8.6961
upperneck 24.0624 -2.06312 2.39748
head 10.1984 -1.42128 2.0511
rclavicle -9.2087e-014 6.36111e-015
rhumerus -36.5631 -17.6219 -74.621
rradius 32.0174
rwrist 6.16262
rhand -15.1633 14.2066
rfingers 7.12502
rthumb 11.0072 -15.4848
lclavicle -9.2087e-014 6.36111e-015
lhumerus -30.4061 8.86104 84.9367
lradius 26.967
lwrist -9.9218
lhand -16.4592 24.8756
lfingers 7.12502
lthumb 9.75715 54.6296
rfemur -30.1661 -2.26759 15.6665
rtibia 62.2867
rfoot -8.33424 -5.84201
rtoes 3.11166
lfemur -11.2511 1.22457 -31.6606
ltibia 28.5765
lfoot -15.3201 -2.49137
ltoes 13.6038
222
root -3.15008 17.3727 1.23116 3.62431 32.4247 4.4546
lowerback 6.18996 -0.504701 -3.74481
upperback 0.230797 -0.889466 1.3274
thorax -3.15628 -0.377322 3.55758
lowerneck -14.591 -2.751 -8.80818
upperneck 24.1496 -2.17623 2.66233
head 10.271 -1.45395 2.14929
rclavicle 4.2689e-014 -1.59028e-015
rhumerus -36.7899 -17.8408 -74.6675
rradius 31.8512
rwrist 6.45452
rhand -14.9055 14.4386
rfingers 7.12502
rthumb 11.2558 -15.2394
lclavicle 4.2689e-014 -1.59028e-015
lhumerus -30.0725 8.26786 85.0498
lradius 27.4001
lwrist -9.64103
lhand -16.1639 24.8731
lfingers 7.12502
lthumb 10.042 54.6135
rfemur -30.9173 -2.09162 15.3581
rtibia 60.6933
rfoot -8.56626 -5.58602
rtoes 1.75359
lfemur -10.8511 1.11079 -31.9161
ltibia 28.742
lfoot -15.8421 -2.71082
ltoes 14.4321
223
root -3.07997 17.3503 1.3507 3.87124 32.6736 4.48631
lowerback 6.03462 -0.56758 -3.86458
upperback 0.214669 -0.97278 1.43359
thorax -3.07473 -0.418058 3.74014
lowerneck -14.6734 -2.73904 -9.05722
upperneck 24.0927 -2.1545 2.9186
head 10.2706 -1.43564 2.28442
rclavicle -7.196e-014 4.77083e-015
rhumerus -36.5739 -17.855 -74.5582
rradius 31.4793
rwrist 6.63935
rhand -14.4469 14.0475
rfingers 7.12502
rthumb 11.6981 -15.6059
lclavicle -7.196e-014 4.77083e-015
lhumerus -29.8414 7.1078 85.5645
lradius 28.1924
lwrist -8.56211
lhand -16.2755 26.1189
lfingers 7.12502
lthumb 9.93435 55.8645
rfemur -31.6326 -1.88188 15.3829
rtibia 58.8764
rfoot -8.48236 -5.93012
rtoes -2.73667
lfemur -10.4958 0.953406 -31.9493
ltibia 28.6451
lfoot -16.2991 -2.57855
ltoes 13.7146
224
root -3.00584 17.3381 1.47596 4.07974 32.7914 4.49116
lowerback 5.88136 -0.623133 -4.04826
upperback 0.224846 -1.04844 1.59136
thorax -2.96513 -0.455048 4.01137
lowerneck -14.8121 -2.68852 -9.10913
upperneck 23.9982 -2.05089 2.89434
head 10.2567 -1.39347 2.29635
rclavicle -6.16232e-015 1.66979e-014
rhumerus -36.2434 -17.8374 -74.4893
rradius 31.092
rwrist 6.71595
rhand -14.5464 13.8898
rfingers 7.12502
rthumb 11.6022 -15.769
lclavicle -6.16232e-015 1.66979e-014
lhumerus -29.4641 6.26905 86.025
lradius 28.797
lwrist -7.80395
lhand -16.6376 26.9897
lfingers 7.12502
lthumb 9.58505 56.7517
rfemur -32.2343 -1.47476 15.412
rtibia 56.8799
rfoot -8.88148 -6.27967
rtoes -7.07473
lfemur -10.0005 0.946834 -31.9857
ltibia 28.3202
lfoot -16.6312 -2.15938
ltoes 11.0603
225
root -2.93163 17.3453 1.60452 4.09091 33.0309 4.57248
lowerback 6.04225 -0.714544 -4.22987
upperback 0.225801 -1.18624 1.66718
thorax -3.03568 -0.518795 4.20792
lowerneck -14.954 -2.68092 -9.02244
upperneck 24.0398 -2.01345 2.75897
head 10.2945 -1.38444 2.23813
rclavicle -3.79679e-014 -2.46493e-014
rhumerus -36.245 -17.852 -74.4722
rradius 30.9917
rwrist 6.73846
rhand -14.5245 13.5544
rfingers 7.12502
rthumb 11.6233 -16.1032
lclavicle -3.79679e-014 -2.46493e-014
lhumerus -29.1024 6.41068 85.9253
lradius 28.9915
lwrist -8.57776
lhand -16.0142 24.0839
lfingers 7.12502
lthumb 10.1864 53.8173
rfemur -32.4366 -0.996022 15.2717
rtibia 54.6379
rfoot -9.57605 -6.38797
rtoes -8.94287
lfemur -9.17662 1.0988 -32.0174
ltibia 27.9013
lfoot -16.825 -2.17639
ltoes 9.69779
226
root -2.85801 17.3479 1.7371 4.29448 33.3156 5.03108
lowerback 6.13788 -0.779325 -4.67935
upperback 0.213812 -1.31136 1.57358
thorax -3.08134 -0.573898 4.37758
lowerneck -14.8261 -2.71861 -8.98262
upperneck 23.8869 -2.10614 2.81497
head 10.22 -1.41493 2.238
rclavicle -2.88238e-015 7.15625e-015
rhumerus -36.303 -17.9837 -74.4879
rradius 30.7689
rwrist 6.85304
rhand -14.6032 13.2042
rfingers 7.12502
rthumb 11.5475 -16.4577
lclavicle -2.88238e-015 7.15625e-015
lhumerus -28.8183 6.27136 85.8027
lradius 29.228
lwrist -8.9859
lhand -15.492 22.163
lfingers 7.12502
lthumb 10.6902 51.871
rfemur -32.4768 -0.733446 14.8291
rtibia 52.1816
rfoot -9.72649 -6.67971
rtoes -12.692
lfemur -8.24306 1.04496 -32.3599
ltibia 27.343
lfoot -16.8615 -2.44883
ltoes 10.4162
227
root -2.77906 17.3536 1.86723 4.37558 33.497 4.98357
lowerback 6.05748 -0.889504 -4.67426
upperback 0.177182 -1.45384 1.60642
thorax -3.05788 -0.644746 4.41909
lowerneck -14.8612 -2.73524 -9.05021
upperneck 23.7682 -2.14134 2.93269
head 10.1878 -1.4219 2.28499
rclavicle -2.78795e-014 1.27222e-014
rhumerus -36.3166 -18.1666 -74.486
rradius 30.5161
rwrist 7.13535
rhand -14.6415 13.1306
rfingers 7.12502
rthumb 11.5105 -16.5334
lclavicle -2.78795e-014 1.27222e-014
lhumerus -28.5548 5.759 85.9854
lradius 29.7089
lwrist -8.37239
lhand -15.8438 23.9886
lfingers 7.12502
lthumb 10.3508 53.7139
rfemur -32.5726 -0.563134 14.8964
rtibia 49.4654
rfoot -9.01502 -6.98851
rtoes 2.69205
lfemur -7.43467 0.670266 -32.2425
ltibia 26.8273
lfoot -16.9076 -2.65945
ltoes 11.9593
228
root -2.698 17.3807 1.99184 4.5025 33.743 4.93856
lowerback 5.94617 -1.03182 -4.74363
upperback 0.189464 -1.63776 1.77075
thorax -2.95569 -0.737673 4.64129
lowerneck -15.2379 -2.80053 -9.30947
upperneck 23.8233 -2.15446 3.0337
head 10.2866 -1.43945 2.3611
rclavicle 1.2921e-015 -1.35174e-014
rhumerus -36.1412 -18.1713 -74.3971
rradius 30.2811
rwrist 7.01274
rhand -14.6419 13.1626
rfingers 7.12502
rthumb 11.5101 -16.5014
lclavicle 1.2921e-015 -1.35174e-014
lhumerus -28.2348 5.37206 86.344
lradius 30.2903
lwrist -7.52931
lhand -16.2092 25.7864
lfingers 7.12502
lthumb 9.99837 55.5289
rfemur -32.7385 -0.289435 14.81
rtibia 46.637
rfoot -8.40961 -7.15196
rtoes 5.58695
lfemur -6.60685 0.145035 -32.0599
ltibia 26.3998
lfoot -17.1613 -3.12529
ltoes 14.8961
229
root -2.62415 17.3877 2.11633 4.72102 34.1767 5.07878
lowerback 5.83959 -1.18019 -4.98862
upperback 0.217776 -1.84343 1.87725
thorax -2.83191 -0.84078 4.90335
lowerneck -15.1911 -2.77015 -9.18433
upperneck 23.6163 -2.13518 2.96999
head 10.1984 -1.42342 2.31775
rclavicle -5.01931e-014 1.59028e-015
rhumerus -36.1559 -18.3921 -74.2474
rradius 30.235
rwrist 6.87844
rhand -14.6191 13.2946
rfingers 7.12502
rthumb 11.5321 -16.3681
lclavicle -5.01931e-014 1.59028e-015
lhumerus -27.8831 5.25129 86.4678
lradius 30.6142
lwrist -7.44128
lhand -16.6929 25.4916
lfingers 7.12502
lthumb 9.5317 55.256
rfemur -32.6906 -0.11968 14.591
rtibia 43.799
rfoot -7.90081 -7.39013
rtoes 8.77341
lfemur -5.86078 -0.318855 -32.0563
ltibia 26.0242
lfoot -17.4263 -3.39066
ltoes 17.2248
